<svg width="60" height="60" viewBox="0 0 60 60" fill="none" xmlns="http://www.w3.org/2000/svg">
<path d="M17.5556 30C16.6741 30 15.9357 30.2987 15.3404 30.896C14.7452 31.4933 14.4465 32.2317 14.4444 33.1111V42.4444C14.4444 43.3259 14.7431 44.0653 15.3404 44.6627C15.9378 45.26 16.6761 45.5576 17.5556 45.5555C18.437 45.5555 19.1764 45.2569 19.7738 44.6595C20.3711 44.0622 20.6687 43.3238 20.6667 42.4444V33.1111C20.6667 32.2296 20.368 31.4913 19.7707 30.896C19.1733 30.3007 18.435 30.0021 17.5556 30ZM42.4444 14.4444C41.563 14.4444 40.8246 14.7431 40.2293 15.3404C39.6341 15.9378 39.3354 16.6761 39.3333 17.5556V42.4444C39.3333 43.3259 39.632 44.0653 40.2293 44.6627C40.8267 45.26 41.565 45.5576 42.4444 45.5555C43.3259 45.5555 44.0653 45.2569 44.6627 44.6595C45.26 44.0622 45.5576 43.3238 45.5555 42.4444V17.5556C45.5555 16.6741 45.2569 15.9357 44.6595 15.3404C44.0622 14.7452 43.3238 14.4465 42.4444 14.4444ZM30 36.2222C29.1185 36.2222 28.3801 36.5209 27.7849 37.1182C27.1896 37.7155 26.891 38.4539 26.8889 39.3333V42.4444C26.8889 43.3259 27.1876 44.0653 27.7849 44.6627C28.3822 45.26 29.1206 45.5576 30 45.5555C30.8815 45.5555 31.6209 45.2569 32.2182 44.6595C32.8156 44.0622 33.1132 43.3238 33.1111 42.4444V39.3333C33.1111 38.4518 32.8124 37.7135 32.2151 37.1182C31.6178 36.523 30.8794 36.2243 30 36.2222ZM8.22222 58C6.51111 58 5.04681 57.3913 3.82933 56.1738C2.61185 54.9563 2.00207 53.491 2 51.7778V8.22222C2 6.51111 2.60978 5.04681 3.82933 3.82933C5.04889 2.61185 6.51318 2.00207 8.22222 2H51.7778C53.4889 2 54.9542 2.60978 56.1738 3.82933C57.3933 5.04889 58.0021 6.51318 58 8.22222V51.7778C58 53.4889 57.3913 54.9542 56.1738 56.1738C54.9563 57.3933 53.491 58.0021 51.7778 58H8.22222ZM30 30C30.8815 30 31.6209 29.7013 32.2182 29.104C32.8156 28.5067 33.1132 27.7683 33.1111 26.8889C33.1111 26.0074 32.8124 25.269 32.2151 24.6738C31.6178 24.0785 30.8794 23.7798 30 23.7778C29.1185 23.7778 28.3801 24.0764 27.7849 24.6738C27.1896 25.2711 26.891 26.0095 26.8889 26.8889C26.8889 27.7704 27.1876 28.5098 27.7849 29.1071C28.3822 29.7044 29.1206 30.0021 30 30Z" fill="#6891C1"/>
</svg>
