<svg width="60" height="60" viewBox="0 0 60 60" fill="none" xmlns="http://www.w3.org/2000/svg">
<path d="M5.72115 43.25C5.22115 42.75 4.98115 42.1567 5.00115 41.47C5.02115 40.7833 5.26115 40.21 5.72115 39.75L18.9087 26.375C19.867 25.4167 21.0545 24.9375 22.4712 24.9375C23.8878 24.9375 25.0753 25.4167 26.0337 26.375L32.4712 32.875L45.4712 20H41.4712C40.7628 20 40.1695 19.76 39.6912 19.28C39.2128 18.8 38.9728 18.2075 38.9712 17.5025C38.9712 16.7942 39.2112 16.2008 39.6912 15.7225C40.1712 15.2442 40.7645 15.0033 41.4712 15H51.4712C52.1795 15 52.7737 15.24 53.2537 15.72C53.7337 16.2 53.9728 16.7933 53.9712 17.5V27.5C53.9712 28.2083 53.7312 28.8025 53.2512 29.2825C52.7712 29.7625 52.1778 30.0017 51.4712 30C50.7628 30 50.1695 29.7608 49.6912 29.2825C49.2128 28.8042 48.9728 28.21 48.9712 27.5V23.5L36.0337 36.4375C35.0753 37.3958 33.8878 37.875 32.4712 37.875C31.0545 37.875 29.867 37.3958 28.9087 36.4375L22.4712 30L9.22115 43.25C8.76282 43.7083 8.17949 43.9375 7.47115 43.9375C6.76282 43.9375 6.17949 43.7083 5.72115 43.25Z" fill="#4982C6"/>
</svg>
