<svg width="60" height="60" viewBox="0 0 60 60" fill="none" xmlns="http://www.w3.org/2000/svg">
<path d="M30 58C26.1267 58 22.4867 57.2645 19.08 55.7936C15.6733 54.3227 12.71 52.3281 10.19 49.81C7.67 47.29 5.67547 44.3267 4.2064 40.92C2.73733 37.5133 2.00187 33.8733 2 30C2 26.1267 2.73547 22.4867 4.2064 19.08C5.67733 15.6733 7.67187 12.71 10.19 10.19C12.71 7.67 15.6733 5.67547 19.08 4.2064C22.4867 2.73733 26.1267 2.00187 30 2C33.8733 2 37.5133 2.73547 40.92 4.2064C44.3267 5.67733 47.29 7.67187 49.81 10.19C52.33 12.71 54.3255 15.6733 55.7964 19.08C57.2673 22.4867 58.0019 26.1267 58 30C58 33.8733 57.2645 37.5133 55.7936 40.92C54.3227 44.3267 52.3281 47.29 49.81 49.81C47.29 52.33 44.3267 54.3255 40.92 55.7964C37.5133 57.2673 33.8733 58.0019 30 58ZM29.93 49.6C30.5833 49.6 31.1555 49.3555 31.6464 48.8664C32.1373 48.3773 32.3819 47.8052 32.38 47.15V46.1C34.7133 45.68 36.72 44.77 38.4 43.37C40.08 41.97 40.92 39.8933 40.92 37.14C40.92 35.18 40.36 33.3833 39.24 31.75C38.12 30.1167 35.88 28.6933 32.52 27.48C29.72 26.5467 27.7833 25.73 26.71 25.03C25.6367 24.33 25.1 23.3733 25.1 22.16C25.1 20.9467 25.5321 19.99 26.3964 19.29C27.2607 18.59 28.5085 18.24 30.14 18.24C31.0733 18.24 31.89 18.4033 32.59 18.73C33.29 19.0567 33.8733 19.5 34.34 20.06C34.8067 20.62 35.3321 21.0045 35.9164 21.2136C36.5007 21.4227 37.0485 21.4115 37.56 21.18C38.26 20.9 38.7388 20.4212 38.9964 19.7436C39.254 19.066 39.1952 18.4481 38.82 17.89C38.0733 16.8167 37.1521 15.9067 36.0564 15.16C34.9607 14.4133 33.7819 13.9933 32.52 13.9V12.85C32.52 12.1967 32.2755 11.6255 31.7864 11.1364C31.2973 10.6473 30.7252 10.4019 30.07 10.4C29.4167 10.4 28.8455 10.6455 28.3564 11.1364C27.8673 11.6273 27.6219 12.1985 27.62 12.85V13.9C25.2867 14.4133 23.4667 15.44 22.16 16.98C20.8533 18.52 20.2 20.2467 20.2 22.16C20.2 24.3533 20.8421 26.1267 22.1264 27.48C23.4107 28.8333 25.4285 30 28.18 30.98C31.12 32.0533 33.1621 33.01 34.3064 33.85C35.4507 34.69 36.0219 35.7867 36.02 37.14C36.02 38.68 35.4721 39.8121 34.3764 40.5364C33.2807 41.2607 31.9619 41.6219 30.42 41.62C29.2067 41.62 28.11 41.3288 27.13 40.7464C26.15 40.164 25.3333 39.2885 24.68 38.12C24.3067 37.4667 23.8167 37.0233 23.21 36.79C22.6033 36.5567 21.9967 36.5567 21.39 36.79C20.7367 37.0233 20.2579 37.4667 19.9536 38.12C19.6493 38.7733 19.6381 39.4033 19.92 40.01C20.6667 41.5967 21.67 42.8921 22.93 43.8964C24.19 44.9007 25.7067 45.5885 27.48 45.96V47.15C27.48 47.8033 27.7255 48.3755 28.2164 48.8664C28.7073 49.3573 29.2785 49.6019 29.93 49.6Z" fill="#6891C1"/>
</svg>
