<svg width="60" height="60" viewBox="0 0 60 60" fill="none" xmlns="http://www.w3.org/2000/svg">
<path d="M30 52.3291C34.4458 50.9114 38.1583 48.1119 41.1375 43.9305C44.1167 39.7492 45.8583 35.0821 46.3625 29.9291H30V7.6L13.5 13.9797V28.6532C13.5 28.984 13.5458 29.4093 13.6375 29.9291H30V52.3291ZM30 58C29.6792 58 29.3812 57.9764 29.1062 57.9291C28.8312 57.8819 28.5562 57.811 28.2812 57.7165C22.0937 55.5899 17.1667 51.6562 13.5 45.9153C9.83333 40.1745 8 33.9951 8 27.3772V13.9797C8 12.7983 8.33275 11.735 8.99825 10.7899C9.66375 9.84473 10.5227 9.15949 11.575 8.73418L28.075 2.35443C28.7167 2.11814 29.3583 2 30 2C30.6417 2 31.2833 2.11814 31.925 2.35443L48.425 8.73418C49.4792 9.15949 50.339 9.84473 51.0045 10.7899C51.67 11.735 52.0018 12.7983 52 13.9797V27.3772C52 33.9932 50.1667 40.1726 46.5 45.9153C42.8333 51.6581 37.9062 55.5918 31.7187 57.7165C31.4437 57.811 31.1687 57.8819 30.8937 57.9291C30.6187 57.9764 30.3208 58 30 58Z" fill="#6891C1"/>
</svg>
