<svg width="44" height="45" viewBox="0 0 44 45" fill="none" xmlns="http://www.w3.org/2000/svg">
<path d="M17.5997 4.70112L18.0099 6.36722C16.3877 6.76917 14.835 7.41188 13.4033 8.27396L12.5255 6.80036C14.0996 5.84693 15.8122 5.13905 17.5997 4.70112ZM26.4004 4.70112L25.9924 6.36493C27.6146 6.76687 29.1673 7.40959 30.599 8.27167L31.4883 6.79807C29.9075 5.84711 28.1922 5.14017 26.4004 4.70112ZM6.30083 13.0202C5.35009 14.5972 4.64237 16.3085 4.2015 18.0964L5.86767 18.5089C6.26963 16.8868 6.91237 15.3341 7.77449 13.9025L6.30083 13.0179V13.0202ZM5.38409 22.4989C5.38125 21.6657 5.44331 20.8335 5.56973 20.01L3.87376 19.7488C3.59764 21.5702 3.59764 23.4229 3.87376 25.2444L5.56973 24.9877C5.44331 24.1642 5.38125 23.332 5.38409 22.4989ZM31.4745 38.1928L30.5944 36.726C29.1663 37.5898 27.6154 38.2319 25.9947 38.6305L26.4072 40.2989C28.1924 39.855 29.9006 39.145 31.4745 38.1928ZM38.6182 22.4989C38.6182 23.3346 38.5556 24.1642 38.4303 24.9877L40.1262 25.2444C40.4024 23.4229 40.4024 21.5702 40.1262 19.7488L38.4303 20.01C38.5556 20.835 38.6182 21.6647 38.6182 22.4989ZM39.8008 26.8944L38.1323 26.4819C37.7308 28.1056 37.0881 29.6599 36.2255 31.0929L37.6992 31.9798C38.6516 30.4001 39.3601 28.6856 39.8008 26.8944ZM24.4912 38.9261C22.8411 39.1782 21.1612 39.1782 19.5111 38.9261L19.2544 40.6266C21.0744 40.9022 22.9256 40.9022 24.7456 40.6266L24.489 38.9284L24.4912 38.9261ZM35.3775 32.3534C34.3878 33.6966 33.2001 34.8819 31.855 35.8689L32.8771 37.2554C34.3588 36.1672 35.6683 34.8624 36.7618 33.3847L35.3775 32.3534ZM31.855 9.12191C33.2003 10.1119 34.3875 11.2991 35.3775 12.6443L36.7618 11.613C35.6721 10.1346 34.3665 8.82819 32.8886 7.73769L31.855 9.12191ZM8.62248 12.6443C9.61164 11.2987 10.7994 10.111 12.1451 9.12191L11.1137 7.73769C9.63517 8.82731 8.32874 10.1329 7.2382 11.6107L8.62248 12.642V12.6443ZM37.7015 13.0179L36.2255 13.9048C37.0895 15.3326 37.7336 16.8841 38.1323 18.5043L39.8008 18.0918C39.3597 16.3047 38.652 14.5942 37.7015 13.0179ZM19.5088 6.0693C21.1588 5.82108 22.8366 5.82108 24.4867 6.0693L24.7433 4.3734C22.9233 4.09775 21.0721 4.09775 19.2521 4.3734L19.5088 6.0693ZM9.50255 37.7161L5.95706 38.5411L6.78212 34.9912L5.11136 34.6016L4.28401 38.1492C4.21716 38.4338 4.22401 38.7307 4.3039 39.0119C4.38379 39.2931 4.53408 39.5493 4.74057 39.7563C4.94706 39.9632 5.20292 40.1141 5.48396 40.1946C5.76499 40.2751 6.06192 40.2826 6.34667 40.2164L9.89445 39.3982L9.50255 37.7161ZM5.4666 33.0684L7.14423 33.4534L7.7172 30.9944C6.8802 29.5917 6.25612 28.0725 5.86538 26.4865L4.19921 26.899C4.5732 28.418 5.14007 29.8829 5.88601 31.2579L5.4666 33.0684ZM13.4881 36.7879L11.0289 37.3609L11.4185 39.0361L13.2291 38.6144C14.6042 39.3638 16.0687 39.9299 17.5882 40.3035L18.0007 38.6351C16.4182 38.2411 14.9029 37.6148 13.5041 36.7765L13.4881 36.7879ZM22 7.60248C20.0437 7.60308 18.1067 7.98898 16.2995 8.73815C14.4923 9.48732 12.8505 10.5851 11.4676 11.9688C10.0847 13.3524 8.98787 14.9949 8.23978 16.8025C7.49169 18.61 7.10696 20.5472 7.10756 22.5034C7.11012 25.3053 7.90289 28.0497 9.39483 30.4214L7.96242 36.5358L14.0702 35.1035C17.411 37.1085 21.4043 37.7253 25.1944 36.8218C28.9845 35.9183 32.27 33.5663 34.3469 30.2698C36.4238 26.9733 37.1269 22.9945 36.3055 19.1859C35.4841 15.3773 33.2037 12.0418 29.9527 9.89423C27.5715 8.39451 24.8142 7.59992 22 7.60248Z" fill="#6891C1"/>
</svg>
