<svg width="44" height="45" viewBox="0 0 44 45" fill="none" xmlns="http://www.w3.org/2000/svg">
<path d="M22 4.16667C11.88 4.16667 3.66667 12.38 3.66667 22.5C3.66667 32.62 11.88 40.8333 22 40.8333C32.12 40.8333 40.3333 32.62 40.3333 22.5C40.3333 12.38 32.12 4.16667 22 4.16667ZM30.5067 16.6333C30.2317 19.53 29.04 26.57 28.435 29.815C28.1783 31.19 27.665 31.6483 27.1883 31.7033C26.125 31.795 25.3183 31.0067 24.2917 30.3283C22.6783 29.265 21.7617 28.605 20.2033 27.5783C18.3883 26.3867 19.5617 25.7267 20.6067 24.6633C20.8817 24.3883 25.575 20.1167 25.6667 19.7317C25.6794 19.6734 25.6777 19.6128 25.6617 19.5553C25.6458 19.4978 25.616 19.4451 25.575 19.4017C25.465 19.31 25.3183 19.3467 25.19 19.365C25.025 19.4017 22.4583 21.1067 17.4533 24.48C16.72 24.975 16.06 25.2317 15.4733 25.2133C14.8133 25.195 13.5667 24.8467 12.6317 24.535C11.4767 24.1683 10.5783 23.9667 10.6517 23.325C10.6883 22.995 11.1467 22.665 12.0083 22.3167C17.3617 19.9883 20.9183 18.4483 22.6967 17.715C27.7933 15.5883 28.8383 15.2217 29.535 15.2217C29.6817 15.2217 30.03 15.2583 30.25 15.4417C30.4333 15.5883 30.4883 15.79 30.5067 15.9367C30.4883 16.0467 30.525 16.3767 30.5067 16.6333Z" fill="#6891C1"/>
</svg>
