<svg width="44" height="45" viewBox="0 0 44 45" fill="none" xmlns="http://www.w3.org/2000/svg">
<g clip-path="url(#clip0_366_1213)">
<path fill-rule="evenodd" clip-rule="evenodd" d="M22 4.16667C11.8745 4.16667 3.66667 12.3745 3.66667 22.5C3.66667 25.965 4.62917 29.21 6.303 31.9747L4.66767 37.5333C4.57378 37.8525 4.5676 38.191 4.64979 38.5134C4.73197 38.8358 4.89949 39.13 5.13473 39.3653C5.36997 39.6005 5.66424 39.768 5.9866 39.8502C6.30897 39.9324 6.64752 39.9262 6.96667 39.8323L12.5253 38.197C15.3829 39.926 18.6601 40.8379 22 40.8333C32.1255 40.8333 40.3333 32.6255 40.3333 22.5C40.3333 12.3745 32.1255 4.16667 22 4.16667ZM17.853 26.6488C21.5618 30.3558 25.102 30.8453 26.3523 30.8912C28.2535 30.9608 30.1052 29.5088 30.8257 27.824C30.9166 27.6144 30.9496 27.3842 30.9213 27.1575C30.8929 26.9308 30.8042 26.7159 30.6643 26.5352C29.6597 25.2518 28.3012 24.3297 26.9738 23.413C26.6967 23.2214 26.3561 23.1445 26.0236 23.1985C25.691 23.2525 25.3923 23.4332 25.19 23.7027L24.09 25.3802C24.0322 25.4704 23.9421 25.535 23.8381 25.5609C23.7341 25.5868 23.6242 25.572 23.5308 25.5195C22.7847 25.0923 21.6975 24.3663 20.9165 23.5853C20.1355 22.8043 19.4535 21.7667 19.0703 21.0682C19.0228 20.9794 19.0091 20.8765 19.0317 20.7784C19.0543 20.6803 19.1116 20.5937 19.1932 20.5347L20.8872 19.277C21.1289 19.0668 21.2849 18.775 21.3255 18.4573C21.3661 18.1395 21.2884 17.8179 21.1072 17.5537C20.2858 16.351 19.3288 14.822 17.941 13.8082C17.7619 13.6784 17.5521 13.5974 17.3322 13.5733C17.1123 13.5492 16.89 13.5828 16.687 13.6707C15.0003 14.393 13.541 16.2447 13.6107 18.1495C13.6565 19.3998 14.146 22.94 17.853 26.6488Z" fill="#6891C1"/>
</g>
<defs>
<clipPath id="clip0_366_1213">
<rect width="44" height="44" fill="white" transform="translate(0 0.5)"/>
</clipPath>
</defs>
</svg>
