<svg width="36" height="28" viewBox="0 0 36 28" fill="none" xmlns="http://www.w3.org/2000/svg">
<g clip-path="url(#clip0_239_4736)">
<path d="M6.54533 27.8609V26.0077C6.54533 25.2971 6.11307 24.8339 5.37216 24.8339C5.00177 24.8339 4.60045 24.9574 4.32259 25.359C4.1066 25.0192 3.79794 24.8339 3.33489 24.8339C3.02609 24.8339 2.71758 24.9265 2.47051 25.2663V24.8957H1.82227V27.8609H2.47051V26.2238C2.47051 25.6988 2.74837 25.4516 3.18063 25.4516C3.61261 25.4516 3.82888 25.7296 3.82888 26.2238V27.8609H4.47713V26.2238C4.47713 25.6988 4.78564 25.4516 5.18696 25.4516C5.61922 25.4516 5.83521 25.7296 5.83521 26.2238V27.8609H6.54533ZM16.1454 24.8957H15.096V24H14.4478V24.8957H13.8612V25.4824H14.4476V26.8416C14.4476 27.5212 14.7255 27.9226 15.4664 27.9226C15.7442 27.9226 16.0528 27.83 16.269 27.7065L16.0837 27.1504C15.8985 27.274 15.6825 27.3049 15.5281 27.3049C15.2195 27.3049 15.096 27.1196 15.096 26.8106V25.4824H16.1454V24.8957ZM21.6402 24.8338C21.2698 24.8338 21.0229 25.0192 20.8685 25.2663V24.8957H20.2202V27.8609H20.8685V26.193C20.8685 25.6988 21.0845 25.4208 21.4858 25.4208C21.6093 25.4208 21.7637 25.4517 21.8871 25.4825L22.0723 24.8649C21.9489 24.8339 21.7637 24.8339 21.6402 24.8339V24.8338ZM13.3365 25.1427C13.0277 24.9265 12.5955 24.8339 12.1325 24.8339C11.3917 24.8339 10.8979 25.2045 10.8979 25.7914C10.8979 26.2857 11.2683 26.5636 11.9165 26.6563L12.2252 26.6873C12.5647 26.7489 12.7499 26.8416 12.7499 26.9961C12.7499 27.2122 12.503 27.3667 12.0708 27.3667C11.6386 27.3667 11.299 27.2122 11.0829 27.0579L10.7743 27.552C11.1139 27.7991 11.5769 27.9226 12.0398 27.9226C12.9042 27.9226 13.3982 27.5212 13.3982 26.9651C13.3982 26.44 12.9969 26.162 12.3794 26.0694L12.0708 26.0385C11.7929 26.0075 11.5769 25.9459 11.5769 25.7606C11.5769 25.5443 11.7929 25.4208 12.1325 25.4208C12.503 25.4208 12.8734 25.5751 13.0586 25.6679L13.3365 25.1427ZM30.5614 24.8339C30.1909 24.8339 29.944 25.0192 29.7896 25.2663V24.8957H29.1413V27.8609H29.7896V26.193C29.7896 25.6988 30.0057 25.4208 30.4069 25.4208C30.5305 25.4208 30.6849 25.4517 30.8083 25.4825L30.9935 24.8649C30.8701 24.8339 30.6849 24.8339 30.5614 24.8339ZM22.2885 26.3783C22.2885 27.274 22.9058 27.9226 23.8628 27.9226C24.2949 27.9226 24.6036 27.83 24.9122 27.583L24.6036 27.0579C24.3567 27.2432 24.1097 27.3358 23.8319 27.3358C23.3071 27.3358 22.9367 26.9651 22.9367 26.3783C22.9367 25.8223 23.3071 25.4516 23.8319 25.4208C24.1097 25.4208 24.3567 25.5134 24.6036 25.6988L24.9122 25.1737C24.6036 24.9265 24.2949 24.8339 23.8628 24.8339C22.9058 24.8339 22.2885 25.4825 22.2885 26.3783ZM28.2771 26.3783V24.8957H27.6288V25.2663C27.4127 24.9884 27.104 24.8339 26.7027 24.8339C25.8693 24.8339 25.221 25.4825 25.221 26.3783C25.221 27.274 25.8693 27.9226 26.7027 27.9226C27.1348 27.9226 27.4436 27.7683 27.6288 27.4902V27.8609H28.2771V26.3783ZM25.9001 26.3783C25.9001 25.8532 26.2397 25.4208 26.7952 25.4208C27.32 25.4208 27.6906 25.8223 27.6906 26.3783C27.6906 26.9034 27.32 27.3358 26.7952 27.3358C26.2397 27.3048 25.9001 26.9034 25.9001 26.3783ZM18.152 24.8339C17.2877 24.8339 16.6702 25.4516 16.6702 26.3783C16.6702 27.3049 17.2875 27.9226 18.1828 27.9226C18.615 27.9226 19.0472 27.7991 19.3868 27.5212L19.078 27.0579C18.8311 27.2432 18.5224 27.3667 18.2138 27.3667C17.8125 27.3667 17.4111 27.1814 17.3185 26.6562H19.5103V26.4092C19.5412 25.4516 18.9856 24.8339 18.152 24.8339ZM18.152 25.3898C18.5532 25.3898 18.8312 25.637 18.8928 26.1004H17.3494C17.4111 25.6988 17.689 25.3898 18.152 25.3898ZM34.2348 26.3783V23.7219H33.5865V25.2663C33.3704 24.9884 33.0617 24.8339 32.6604 24.8339C31.827 24.8339 31.1787 25.4825 31.1787 26.3783C31.1787 27.274 31.827 27.9226 32.6604 27.9226C33.0927 27.9226 33.4013 27.7683 33.5865 27.4902V27.8609H34.2348V26.3783ZM31.8579 26.3783C31.8579 25.8532 32.1974 25.4208 32.7531 25.4208C33.2779 25.4208 33.6482 25.8223 33.6482 26.3783C33.6482 26.9034 33.2779 27.3358 32.7531 27.3358C32.1974 27.3048 31.8579 26.9034 31.8579 26.3783ZM10.1877 26.3783V24.8957H9.5395V25.2663C9.32337 24.9884 9.01471 24.8339 8.61339 24.8339C7.77995 24.8339 7.1317 25.4825 7.1317 26.3783C7.1317 27.274 7.77995 27.9226 8.61339 27.9226C9.04565 27.9226 9.35431 27.7683 9.5395 27.4902V27.8609H10.1877V26.3783ZM7.77995 26.3783C7.77995 25.8532 8.11954 25.4208 8.67512 25.4208C9.19991 25.4208 9.57044 25.8223 9.57044 26.3783C9.57044 26.9034 9.19991 27.3358 8.67512 27.3358C8.11954 27.3048 7.77995 26.9034 7.77995 26.3783Z" fill="white"/>
<path d="M13.1204 2.37842H22.8441V19.861H13.1204V2.37842Z" fill="#FF5F00"/>
<path d="M13.7375 11.1197C13.7375 7.5676 15.4044 4.41696 17.9665 2.37831C16.0836 0.895719 13.7067 0 11.1137 0C4.97058 0 0.000732422 4.97288 0.000732422 11.1197C0.000732422 17.2663 4.97058 22.2393 11.1136 22.2393C13.7066 22.2393 16.0834 21.3436 17.9665 19.8609C15.4044 17.8532 13.7375 14.6717 13.7375 11.1197Z" fill="#EB001B"/>
<path d="M35.9633 11.1197C35.9633 17.2663 30.9934 22.2393 24.8504 22.2393C22.2574 22.2393 19.8806 21.3436 17.9976 19.8609C20.5905 17.8224 22.2266 14.6717 22.2266 11.1197C22.2266 7.5676 20.5596 4.41696 17.9976 2.37831C19.8804 0.895719 22.2574 0 24.8504 0C30.9934 0 35.9633 5.00384 35.9633 11.1197Z" fill="#F79E1B"/>
</g>
<defs>
<clipPath id="clip0_239_4736">
<rect width="36" height="28" fill="white"/>
</clipPath>
</defs>
</svg>
