<svg width="36" height="36" viewBox="0 0 36 36" fill="none" xmlns="http://www.w3.org/2000/svg">
<g clip-path="url(#clip0_163_865)">
<path d="M10.8 13.2L11.76 13.92C11.8937 13.7417 11.9751 13.5297 11.9952 13.3078C12.0152 13.0858 11.973 12.8627 11.8733 12.6634C11.7737 12.464 11.6204 12.2964 11.4309 12.1792C11.2413 12.0621 11.0229 12 10.8 12V13.2ZM7.2 18L6.24 17.28C6.10629 17.4583 6.02486 17.6703 6.00485 17.8922C5.98484 18.1142 6.02702 18.3373 6.12669 18.5367C6.22635 18.736 6.37955 18.9036 6.56912 19.0208C6.75869 19.138 6.97715 19.2 7.2 19.2V18ZM4.8 14.4H10.8V12H4.8V14.4ZM9.84 12.48L6.24 17.28L8.16 18.72L11.76 13.92L9.84 12.48ZM7.2 19.2H8.4V16.8H7.2V19.2ZM8.4 21.6H4.8V24H8.4V21.6ZM9.6 20.4C9.6 20.7183 9.47357 21.0235 9.24853 21.2485C9.02348 21.4736 8.71826 21.6 8.4 21.6V24C9.35478 24 10.2705 23.6207 10.9456 22.9456C11.6207 22.2705 12 21.3548 12 20.4H9.6ZM8.4 19.2C8.71826 19.2 9.02348 19.3264 9.24853 19.5515C9.47357 19.7765 9.6 20.0818 9.6 20.4H12C12 19.4452 11.6207 18.5296 10.9456 17.8544C10.2705 17.1793 9.35478 16.8 8.4 16.8V19.2ZM19.2 12H18V14.4H19.2V12ZM14.4 15.6V18H16.8V15.6H14.4ZM14.4 18V20.4H16.8V18H14.4ZM18 16.8H15.6V19.2H18V16.8ZM21.6 20.4C21.6 19.4452 21.2207 18.5296 20.5456 17.8544C19.8705 17.1793 18.9548 16.8 18 16.8V19.2C18.3183 19.2 18.6235 19.3264 18.8485 19.5515C19.0736 19.7765 19.2 20.0818 19.2 20.4H21.6ZM18 24C18.9548 24 19.8705 23.6207 20.5456 22.9456C21.2207 22.2705 21.6 21.3548 21.6 20.4H19.2C19.2 20.7183 19.0736 21.0235 18.8485 21.2485C18.6235 21.4736 18.3183 21.6 18 21.6V24ZM18 21.6C17.6817 21.6 17.3765 21.4736 17.1515 21.2485C16.9264 21.0235 16.8 20.7183 16.8 20.4H14.4C14.4 21.3548 14.7793 22.2705 15.4544 22.9456C16.1295 23.6207 17.0452 24 18 24V21.6ZM18 12C17.0452 12 16.1295 12.3793 15.4544 13.0544C14.7793 13.7296 14.4 14.6452 14.4 15.6H16.8C16.8 15.2818 16.9264 14.9765 17.1515 14.7515C17.3765 14.5264 17.6817 14.4 18 14.4V12ZM28.8 15.6V20.4H31.2V15.6H28.8ZM26.4 20.4V15.6H24V20.4H26.4ZM27.6 21.6C27.2817 21.6 26.9765 21.4736 26.7515 21.2485C26.5264 21.0235 26.4 20.7183 26.4 20.4H24C24 21.3548 24.3793 22.2705 25.0544 22.9456C25.7295 23.6207 26.6452 24 27.6 24V21.6ZM28.8 20.4C28.8 20.7183 28.6736 21.0235 28.4485 21.2485C28.2235 21.4736 27.9183 21.6 27.6 21.6V24C28.5548 24 29.4705 23.6207 30.1456 22.9456C30.8207 22.2705 31.2 21.3548 31.2 20.4H28.8ZM27.6 14.4C27.9183 14.4 28.2235 14.5264 28.4485 14.7515C28.6736 14.9765 28.8 15.2818 28.8 15.6H31.2C31.2 14.6452 30.8207 13.7296 30.1456 13.0544C29.4705 12.3793 28.5548 12 27.6 12V14.4ZM27.6 12C26.6452 12 25.7295 12.3793 25.0544 13.0544C24.3793 13.7296 24 14.6452 24 15.6H26.4C26.4 15.2818 26.5264 14.9765 26.7515 14.7515C26.9765 14.5264 27.2817 14.4 27.6 14.4V12ZM18 33.6C13.8626 33.6 9.8947 31.9564 6.96913 29.0309C4.04357 26.1053 2.4 22.1374 2.4 18H0C0 22.7739 1.89642 27.3523 5.27208 30.7279C8.64773 34.1036 13.2261 36 18 36V33.6ZM33.6 18C33.6 20.0486 33.1965 22.0772 32.4125 23.9699C31.6285 25.8626 30.4795 27.5823 29.0309 29.0309C27.5823 30.4795 25.8625 31.6286 23.9699 32.4125C22.0772 33.1965 20.0486 33.6 18 33.6V36C22.7739 36 27.3523 34.1036 30.7279 30.7279C34.1036 27.3523 36 22.7739 36 18H33.6ZM18 9.94523e-06C13.2261 9.94523e-06 8.64773 1.89643 5.27208 5.27209C1.89642 8.64774 0 13.2261 0 18H2.4C2.4 13.8626 4.04357 9.89471 6.96913 6.96914C9.8947 4.04358 13.8626 2.40001 18 2.40001V9.94523e-06ZM32.4 7.20001C32.7183 7.20001 33.0235 7.32644 33.2485 7.55148C33.4736 7.77653 33.6 8.08175 33.6 8.40001H36C36 7.44523 35.6207 6.52956 34.9456 5.85443C34.2705 5.1793 33.3548 4.80001 32.4 4.80001V7.20001ZM32.4 9.60001C32.0817 9.60001 31.7765 9.47358 31.5515 9.24854C31.3264 9.0235 31.2 8.71827 31.2 8.40001H28.8C28.8 9.35479 29.1793 10.2705 29.8544 10.9456C30.5295 11.6207 31.4452 12 32.4 12V9.60001ZM31.2 8.40001C31.2 8.10481 31.3056 7.83601 31.4832 7.62481L29.652 6.07441C29.1216 6.70081 28.8 7.51441 28.8 8.40001H31.2ZM31.4832 7.62481C31.5957 7.49135 31.7361 7.38415 31.8945 7.31076C32.0529 7.23737 32.2254 7.19957 32.4 7.20001V4.80001C31.296 4.80001 30.3096 5.29681 29.652 6.07441L31.4832 7.62481ZM18 2.40001C22.6416 2.40001 26.8104 4.42561 29.6688 7.64641L31.464 6.05281C29.7768 4.14753 27.7039 2.6226 25.3827 1.57909C23.0614 0.535583 20.545 -0.00266821 18 9.94523e-06V2.40001ZM32.0496 11.208C33.0432 13.2624 33.6 15.564 33.6 18H36C36 15.192 35.3568 12.5352 34.2096 10.164L32.0496 11.208ZM33.6 8.40001C33.6003 8.65478 33.5196 8.90304 33.3694 9.10886C33.2193 9.31468 33.0075 9.46736 32.7648 9.54481L33.4944 11.8296C34.2218 11.5975 34.8565 11.1402 35.3069 10.5237C35.7573 9.90721 36 9.1635 36 8.40001H33.6ZM32.7648 9.54481C32.6468 9.58191 32.5237 9.60053 32.4 9.60001V12C32.7713 12.0008 33.1404 11.9417 33.4944 11.8296L32.7648 9.54481Z" fill="white"/>
</g>
<defs>
<clipPath id="clip0_163_865">
<rect width="36" height="36" fill="white"/>
</clipPath>
</defs>
</svg>
