<svg width="15" height="16" viewBox="0 0 15 16" fill="none" xmlns="http://www.w3.org/2000/svg">
<path d="M12.6667 4.80004L2.28333 15.1834C2.06944 15.3973 1.79722 15.5042 1.46666 15.5042C1.13611 15.5042 0.863884 15.3973 0.649996 15.1834C0.436107 14.9695 0.329163 14.6973 0.329163 14.3667C0.329163 14.0362 0.436107 13.7639 0.649996 13.55L11.0333 3.16671H2.16666C1.83611 3.16671 1.55922 3.05471 1.336 2.83071C1.11277 2.60671 1.00077 2.32982 0.999996 2.00004C0.999996 1.66949 1.112 1.3926 1.336 1.16937C1.56 0.946152 1.83688 0.834152 2.16666 0.833374H13.8333C14.1639 0.833374 14.4412 0.945374 14.6652 1.16937C14.8892 1.39337 15.0008 1.67026 15 2.00004V13.6667C15 13.9973 14.888 14.2745 14.664 14.4985C14.44 14.7225 14.1631 14.8342 13.8333 14.8334C13.5028 14.8334 13.2259 14.7214 13.0027 14.4974C12.7794 14.2734 12.6674 13.9965 12.6667 13.6667V4.80004Z" fill="#6891C1"/>
</svg>
