<svg width="24" height="24" viewBox="0 0 24 24" fill="none" xmlns="http://www.w3.org/2000/svg">
<path d="M19.6667 7.04992L3.72089 22.9958C3.39242 23.3242 2.97436 23.4885 2.46672 23.4885C1.95908 23.4885 1.54103 23.3242 1.21256 22.9958C0.884084 22.6673 0.719849 22.2492 0.719849 21.7416C0.719849 21.2339 0.884084 20.8159 1.21256 20.4874L17.1584 4.54159H3.54172C3.03408 4.54159 2.60886 4.36959 2.26606 4.02559C1.92325 3.68159 1.75125 3.25636 1.75006 2.74992C1.75006 2.24228 1.92206 1.81706 2.26606 1.47425C2.61006 1.13145 3.03528 0.959446 3.54172 0.958252H21.4584C21.966 0.958252 22.3918 1.13025 22.7358 1.47425C23.0798 1.81825 23.2513 2.24347 23.2501 2.74992V20.6666C23.2501 21.1742 23.0781 21.6 22.7341 21.944C22.3901 22.288 21.9648 22.4594 21.4584 22.4583C20.9508 22.4583 20.5255 22.2863 20.1827 21.9423C19.8399 21.5983 19.6679 21.173 19.6667 20.6666V7.04992Z" fill="#F8F8F8"/>
</svg>
