<svg width="41" height="36" viewBox="0 0 41 36" fill="none" xmlns="http://www.w3.org/2000/svg">
<path d="M13.8125 35.25C15.4003 35.25 16.6875 33.9628 16.6875 32.375C16.6875 30.7872 15.4003 29.5 13.8125 29.5C12.2247 29.5 10.9375 30.7872 10.9375 32.375C10.9375 33.9628 12.2247 35.25 13.8125 35.25Z" fill="#566B56"/>
<path d="M33.9375 35.25C35.5253 35.25 36.8125 33.9628 36.8125 32.375C36.8125 30.7872 35.5253 29.5 33.9375 29.5C32.3497 29.5 31.0625 30.7872 31.0625 32.375C31.0625 33.9628 32.3497 35.25 33.9375 35.25Z" fill="#566B56"/>
<path d="M13.074 22.3125H36.5537L40.0037 5.0625H10.0292L9.2682 0.75H0.875V3.625H6.8568L11.1693 28.0625H36.8125V25.1875H13.5807L13.074 22.3125Z" fill="#566B56"/>
</svg>
