<svg width="36" height="36" viewBox="0 0 36 36" fill="none" xmlns="http://www.w3.org/2000/svg">
<path d="M12.4728 31.6957C13.7154 31.6957 14.7228 30.6883 14.7228 29.4457C14.7228 28.203 13.7154 27.1957 12.4728 27.1957C11.2301 27.1957 10.2228 28.203 10.2228 29.4457C10.2228 30.6883 11.2301 31.6957 12.4728 31.6957Z" fill="white"/>
<path d="M28.2228 31.6957C29.4654 31.6957 30.4728 30.6883 30.4728 29.4457C30.4728 28.203 29.4654 27.1957 28.2228 27.1957C26.9801 27.1957 25.9728 28.203 25.9728 29.4457C25.9728 30.6883 26.9801 31.6957 28.2228 31.6957Z" fill="white"/>
<path d="M11.8948 21.5707H30.2703L32.9703 8.07068H9.51192L8.91637 4.69568H2.34778V6.94568H7.02918L10.4042 26.0707H30.4728V23.8207H12.2914L11.8948 21.5707Z" fill="white"/>
</svg>
