<svg width="40" height="40" viewBox="0 0 40 40" fill="none" xmlns="http://www.w3.org/2000/svg">
<path d="M19.9999 40C17.2333 40 14.6333 39.4753 12.2 38.426C9.76663 37.3766 7.64997 35.9537 5.84998 34.1573C4.04999 32.3596 2.62532 30.2455 1.57599 27.8152C0.526665 25.3849 0.00133333 22.7882 0 20.025C0 17.5281 0.483331 15.0811 1.44999 12.6841C2.41666 10.2871 3.76665 8.14782 5.49998 6.26617C7.23331 4.38585 9.31663 2.87108 11.75 1.72185C14.1833 0.572619 16.8499 -0.00132936 19.7499 2.31193e-06C20.4499 2.31193e-06 21.1666 0.0332942 21.8999 0.0998776C22.6333 0.166461 23.3833 0.282982 24.1499 0.449441C23.8499 1.94757 23.9499 3.36246 24.4499 4.69413C24.9499 6.0258 25.6999 7.13242 26.6999 8.01398C27.6999 8.89688 28.8919 9.50479 30.2759 9.8377C31.6599 10.1706 33.0845 10.0874 34.5499 9.58802C33.6832 11.5522 33.8085 13.4332 34.9259 15.231C36.0432 17.0287 37.7012 17.9609 39.8999 18.0275C39.9332 18.3937 39.9585 18.7346 39.9759 19.0502C39.9932 19.3658 40.0012 19.7074 39.9999 20.0749C39.9999 22.8048 39.4745 25.3763 38.4239 27.7893C37.3732 30.2022 35.9485 32.3163 34.1499 34.1313C32.3499 35.9464 30.2332 37.3779 27.7999 38.426C25.3666 39.474 22.7666 39.9987 19.9999 40ZM16.9999 16.03C17.8333 16.03 18.5419 15.739 19.1259 15.1571C19.7099 14.5751 20.0013 13.8673 19.9999 13.0337C19.9999 12.2014 19.7086 11.4943 19.1259 10.9124C18.5433 10.3304 17.8346 10.0388 16.9999 10.0375C16.1666 10.0375 15.4586 10.3291 14.8759 10.9124C14.2933 11.4956 14.0013 12.2027 14 13.0337C14 13.866 14.2919 14.5738 14.8759 15.1571C15.4599 15.7403 16.1679 16.0313 16.9999 16.03ZM13 26.0175C13.8333 26.0175 14.5419 25.7265 15.1259 25.1446C15.7099 24.5626 16.0013 23.8548 15.9999 23.0212C15.9999 22.1889 15.7086 21.4818 15.1259 20.8999C14.5433 20.3179 13.8346 20.0263 13 20.025C12.1666 20.025 11.4586 20.3166 10.876 20.8999C10.2933 21.4831 10.0013 22.1903 9.99996 23.0212C9.99996 23.8535 10.292 24.5613 10.876 25.1446C11.46 25.7278 12.168 26.0188 13 26.0175ZM25.9999 28.015C26.5666 28.015 27.0419 27.8232 27.4259 27.4397C27.8099 27.0562 28.0012 26.5821 27.9999 26.0175C27.9999 25.4515 27.8079 24.9774 27.4239 24.5953C27.0399 24.2131 26.5652 24.0213 25.9999 24.02C25.4332 24.02 24.9586 24.2117 24.5759 24.5953C24.1932 24.9788 24.0012 25.4529 23.9999 26.0175C23.9999 26.5834 24.1919 27.0582 24.5759 27.4417C24.9599 27.8252 25.4346 28.0163 25.9999 28.015Z" fill="#4982C6"/>
</svg>
