<svg width="20" height="21" viewBox="0 0 20 21" fill="none" xmlns="http://www.w3.org/2000/svg">
<path d="M2 10.0055C1.99963 8.87049 2.25667 7.75017 2.75177 6.72891C3.24687 5.70765 3.96711 4.81208 4.85828 4.10961C5.74945 3.40715 6.78831 2.91611 7.89664 2.67346C9.00497 2.43081 10.1539 2.44288 11.2569 2.70876C11.3387 2.7282 11.4138 2.76929 11.4743 2.82775C11.5348 2.88621 11.5784 2.95987 11.6007 3.04101C11.6229 3.12215 11.6229 3.20778 11.6007 3.28892C11.5785 3.37007 11.5349 3.44374 11.4744 3.50221C11.2323 3.7379 11.0583 4.0346 10.9708 4.36101C10.8832 4.68742 10.8855 5.03141 10.9772 5.35666C11.0689 5.68192 11.2466 5.97637 11.4917 6.20892C11.7368 6.44147 12.0402 6.6035 12.3697 6.6779C12.4864 6.70409 12.5908 6.76925 12.6656 6.86266C12.7404 6.95607 12.7812 7.07217 12.7813 7.19186C12.7812 7.57327 12.8973 7.94565 13.1142 8.25935C13.331 8.57305 13.6383 8.81315 13.9951 8.94764C14.3519 9.08214 14.7411 9.10463 15.111 9.01212C15.4809 8.91961 15.8138 8.7165 16.0653 8.42987C16.1234 8.36353 16.199 8.31492 16.2835 8.28964C16.368 8.26435 16.4578 8.26341 16.5428 8.28691C16.6278 8.31042 16.7044 8.35742 16.7639 8.42252C16.8234 8.48762 16.8633 8.56818 16.8791 8.65496C17.0653 9.67991 17.0362 10.7324 16.7935 11.7455C16.5508 12.7586 16.0999 13.71 15.4695 14.5391C14.8391 15.3683 14.043 16.0571 13.1319 16.5615C12.2209 17.066 11.2148 17.3752 10.1777 17.4693C9.14064 17.5634 8.09534 17.4405 7.10838 17.1083C6.12142 16.7761 5.21442 16.2419 4.44515 15.5398C3.67587 14.8377 3.06117 13.983 2.6402 13.0302C2.21922 12.0774 2.00119 11.0473 2 10.0055ZM6.6875 8.12974C6.6875 7.881 6.58873 7.64244 6.41291 7.46656C6.2371 7.29067 5.99864 7.19186 5.75 7.19186C5.50136 7.19186 5.2629 7.29067 5.08709 7.46656C4.91127 7.64244 4.8125 7.881 4.8125 8.12974C4.8125 8.37848 4.91127 8.61704 5.08709 8.79293C5.2629 8.96881 5.50136 9.06763 5.75 9.06763C5.99864 9.06763 6.2371 8.96881 6.41291 8.79293C6.58873 8.61704 6.6875 8.37848 6.6875 8.12974ZM9.5 10.9434C9.74864 10.9434 9.9871 10.8446 10.1629 10.6687C10.3387 10.4928 10.4375 10.2543 10.4375 10.0055C10.4375 9.75677 10.3387 9.51822 10.1629 9.34233C9.9871 9.16644 9.74864 9.06763 9.5 9.06763C9.25136 9.06763 9.01291 9.16644 8.83709 9.34233C8.66127 9.51822 8.5625 9.75677 8.5625 10.0055C8.5625 10.2543 8.66127 10.4928 8.83709 10.6687C9.01291 10.8446 9.25136 10.9434 9.5 10.9434ZM12.3125 13.7571C12.3125 13.5083 12.2137 13.2698 12.0379 13.0939C11.8621 12.918 11.6236 12.8192 11.375 12.8192C11.1264 12.8192 10.8879 12.918 10.7121 13.0939C10.5363 13.2698 10.4375 13.5083 10.4375 13.7571C10.4375 14.0058 10.5363 14.2444 10.7121 14.4202C10.8879 14.5961 11.1264 14.6949 11.375 14.6949C11.6236 14.6949 11.8621 14.5961 12.0379 14.4202C12.2137 14.2444 12.3125 14.0058 12.3125 13.7571ZM6.6875 13.7571C6.93614 13.7571 7.1746 13.6582 7.35041 13.4824C7.52623 13.3065 7.625 13.0679 7.625 12.8192C7.625 12.5704 7.52623 12.3319 7.35041 12.156C7.1746 11.9801 6.93614 11.8813 6.6875 11.8813C6.43886 11.8813 6.2004 11.9801 6.02459 12.156C5.84877 12.3319 5.75 12.5704 5.75 12.8192C5.75 13.0679 5.84877 13.3065 6.02459 13.4824C6.2004 13.6582 6.43886 13.7571 6.6875 13.7571Z" fill="white"/>
</svg>
