<svg width="19" height="19" viewBox="0 0 19 19" fill="none" xmlns="http://www.w3.org/2000/svg">
<path d="M8.555 1.58325C8.14571 1.58325 7.75466 1.745 7.46491 2.03475L7.12474 2.37492H3.16641C3.0615 2.37344 2.95735 2.39282 2.86 2.43194C2.76265 2.47105 2.67404 2.52913 2.59933 2.60279C2.52462 2.67645 2.4653 2.76423 2.42481 2.86101C2.38432 2.9578 2.36346 3.06167 2.36346 3.16659C2.36346 3.2715 2.38432 3.37537 2.42481 3.47216C2.4653 3.56894 2.52462 3.65672 2.59933 3.73038C2.67404 3.80404 2.76265 3.86212 2.86 3.90124C2.95735 3.94035 3.0615 3.95974 3.16641 3.95825H15.8331C15.938 3.95974 16.0421 3.94035 16.1395 3.90124C16.2368 3.86212 16.3254 3.80404 16.4001 3.73038C16.4749 3.65672 16.5342 3.56894 16.5747 3.47216C16.6152 3.37537 16.636 3.2715 16.636 3.16659C16.636 3.06167 16.6152 2.9578 16.5747 2.86101C16.5342 2.76423 16.4749 2.67645 16.4001 2.60279C16.3254 2.52913 16.2368 2.47105 16.1395 2.43194C16.0421 2.39282 15.938 2.37344 15.8331 2.37492H11.8747L11.5346 2.03475C11.2456 1.745 10.8538 1.58325 10.4445 1.58325H8.555ZM3.45555 5.54159L4.6647 16.042C4.7692 16.8257 5.44403 17.4166 6.23411 17.4166H12.7638C13.5539 17.4166 14.2295 16.8267 14.3348 16.0358L15.5439 5.54159H3.45555Z" fill="#566B56"/>
</svg>
