<svg width="40" height="40" viewBox="0 0 40 40" fill="none" xmlns="http://www.w3.org/2000/svg">
<path d="M6.66659 33.3334C5.74992 33.3334 4.96547 33.0073 4.31325 32.3551C3.66103 31.7029 3.33436 30.9179 3.33325 30.0001V10.0001C3.33325 9.08341 3.65992 8.29897 4.31325 7.64675C4.96659 6.99453 5.75103 6.66786 6.66659 6.66675H33.3333C34.2499 6.66675 35.0349 6.99341 35.6883 7.64675C36.3416 8.30008 36.6677 9.08453 36.6666 10.0001V30.0001C36.6666 30.9167 36.3405 31.7017 35.6883 32.3551C35.036 33.0084 34.251 33.3345 33.3333 33.3334H6.66659ZM19.9999 21.3751C20.1388 21.3751 20.2849 21.354 20.4383 21.3117C20.5916 21.2695 20.7371 21.2073 20.8749 21.1251L32.6666 13.7501C32.8888 13.6112 33.0555 13.4379 33.1666 13.2301C33.2777 13.0223 33.3333 12.7929 33.3333 12.5417C33.3333 11.9862 33.0971 11.5695 32.6249 11.2917C32.1527 11.014 31.6666 11.0279 31.1666 11.3334L19.9999 18.3334L8.83325 11.3334C8.33325 11.0279 7.84714 11.0212 7.37492 11.3134C6.9027 11.6056 6.66659 12.0151 6.66659 12.5417C6.66659 12.8195 6.72214 13.0629 6.83325 13.2717C6.94436 13.4806 7.11103 13.6401 7.33325 13.7501L19.1249 21.1251C19.2638 21.2084 19.4099 21.2712 19.5633 21.3134C19.7166 21.3556 19.8621 21.3762 19.9999 21.3751Z" fill="#6891C1"/>
</svg>
