<svg width="21" height="21" viewBox="0 0 21 21" fill="none" xmlns="http://www.w3.org/2000/svg">
<path d="M10.5 12.25C12.4302 12.25 14 10.6803 14 8.75C14 6.81975 12.4302 5.25 10.5 5.25C8.56975 5.25 7 6.81975 7 8.75C7 10.6803 8.56975 12.25 10.5 12.25ZM10.5 7C11.4651 7 12.25 7.78487 12.25 8.75C12.25 9.71513 11.4651 10.5 10.5 10.5C9.53487 10.5 8.75 9.71513 8.75 8.75C8.75 7.78487 9.53487 7 10.5 7Z" fill="white"/>
<path d="M9.99258 19.0872C10.1407 19.193 10.3181 19.2499 10.5001 19.2499C10.6821 19.2499 10.8595 19.193 11.0076 19.0872C11.2736 18.8991 17.5255 14.385 17.5001 8.75C17.5001 4.89038 14.3597 1.75 10.5001 1.75C6.64045 1.75 3.50008 4.89037 3.50008 8.74563C3.4747 14.385 9.72658 18.8991 9.99258 19.0872ZM10.5001 3.5C13.3955 3.5 15.7501 5.85463 15.7501 8.75438C15.7685 12.6376 11.9106 16.1245 10.5001 17.2681C9.09045 16.1236 5.2317 12.6359 5.25008 8.75C5.25008 5.85463 7.6047 3.5 10.5001 3.5Z" fill="white"/>
</svg>
