<svg width="48" height="38" viewBox="0 0 48 38" fill="none" xmlns="http://www.w3.org/2000/svg">
<g clip-path="url(#clip0_1959_86)">
<path d="M1.47425 33.4294L30.13 37.9999L46.4771 35.3229V12.0137L46.9276 11.8283V8.86384H46.6372L46.6534 8.47241L47.9993 8.06456V5.59966H45.8835L34.232 5.22397L14.1665 4.44043L0 5.5497V6.58234L0.578761 7.13937C0.591592 7.71282 0.604424 8.28696 0.61658 8.86042C0.610502 8.93775 0.590917 9.27169 0.825258 9.57963C1.05014 9.87526 1.35675 9.94711 1.43441 9.96353C1.43981 17.7367 1.44454 25.5091 1.44994 33.2822" fill="#566B56"/>
<path d="M30.1309 38.0001V8.53283C30.4435 8.52872 30.7562 8.52461 31.0682 8.52051C31.1033 18.2898 31.1385 28.0597 31.1736 37.829C30.8258 37.8858 30.478 37.9426 30.1309 38.0001Z" fill="#3A493B"/>
<path d="M1.45117 9.71996C18.0509 10.7731 24.0931 11.1584 24.7482 11.2015L25.8125 11.272C26.2069 11.298 26.6006 11.324 26.995 11.3507C27.388 11.3767 27.5846 11.3897 27.5846 11.3897C28.1025 11.426 28.1174 11.4328 28.2079 11.4308C28.3254 11.428 28.7211 11.4068 29.1095 11.1748C29.6308 10.8635 29.8307 10.3557 29.903 10.1641C29.9921 9.92731 30.1751 9.44282 29.9752 8.90974C29.8753 8.64422 29.7159 8.45877 29.595 8.34586C29.5721 8.32396 29.5504 8.30549 29.5309 8.28906H31.6143C31.6143 8.29317 31.6143 8.34997 31.6143 8.35407C31.6143 8.38487 31.6143 8.41635 31.6143 8.44714V8.48341C31.6143 8.55252 31.6143 8.55252 31.6143 8.55252C31.6109 8.60932 31.3178 8.65175 31.2057 8.69486C31.0754 8.74413 30.9166 8.89605 30.8248 9.37302V13.559C36.0505 13.1018 41.2769 12.644 46.5027 12.1869" stroke="#3A493B" stroke-miterlimit="10"/>
<path d="M30.9841 13.7946C30.7809 13.8117 30.5776 13.8288 30.3743 13.8466C30.2541 12.0509 30.1339 10.2553 30.0137 8.46034C30.3358 8.43297 30.6579 8.40628 30.9801 8.37891C30.9814 10.1841 30.9828 11.9894 30.9841 13.7946Z" fill="#3A493B"/>
<path d="M33.4389 8.3782C33.4342 8.81411 33.4294 9.25002 33.424 9.68524C33.9001 9.65308 34.3769 9.62023 34.853 9.58807V8.37409L37.9062 8.16674V9.42109L39.3487 9.32392V8.11816L42.3175 7.92313C42.3155 8.34125 42.3134 8.75936 42.3114 9.17748C42.7504 9.14737 43.1887 9.11657 43.6276 9.08646C43.6398 8.64577 43.6519 8.20575 43.6634 7.76505C44.6636 7.73015 45.6638 7.69457 46.6646 7.65967C46.6579 8.11953 46.6511 8.58007 46.6443 9.03993C46.5491 9.04335 46.4546 9.04746 46.3594 9.05088C46.3621 8.63824 46.3648 8.22628 46.3675 7.81364C46.0453 7.82459 45.7239 7.83554 45.4017 7.8458C45.1438 7.86223 44.9776 7.87249 44.8811 7.87796C44.6724 7.89028 44.5751 7.89576 44.4603 7.96077C44.4198 7.98335 44.3212 8.04152 44.2516 8.15443C44.1747 8.28034 44.2037 8.38983 44.1915 8.73883C44.1848 8.92154 44.1875 9.07278 44.1915 9.17748L42.1122 9.32392V8.22354H40.9945C40.9702 8.22423 40.9459 8.22491 40.9222 8.2256C40.0652 8.25844 39.8255 8.42884 39.7762 8.58828C39.762 8.63482 39.7708 8.64029 39.7843 8.86406C39.7985 9.10152 39.7971 9.29723 39.7931 9.43067C39.0955 9.47447 38.3979 9.51827 37.7009 9.56275V8.40146C37.1856 8.43637 36.6697 8.47195 36.1544 8.50685C35.6364 8.59102 35.5324 8.77305 35.5054 8.83943C35.502 8.84832 35.4986 8.85722 35.4953 8.86817C35.4352 9.04541 35.4527 9.18706 35.4649 9.34924C35.4723 9.44641 35.4797 9.58465 35.4797 9.75709C34.7402 9.81389 34.0014 9.87069 33.2619 9.92749V8.78058H31.6992V8.48221L33.4382 8.37683L33.4389 8.3782Z" fill="#3A493B"/>
<path d="M33.2602 9.70508L32.6504 9.73861V9.95143L33.2933 9.92953" fill="#3A493B"/>
<path d="M37.699 9.43408L37.2695 9.46145V9.59216L37.7321 9.56479" fill="#3A493B"/>
<path d="M42.1177 9.19141L41.6875 9.21878V9.34948L42.1508 9.32211" fill="#3A493B"/>
<path d="M46.3618 8.91797L45.9316 8.94534V9.07673L46.3949 9.04936" fill="#3A493B"/>
<path d="M8.08906 27.2967C12.4166 27.8154 16.7448 28.3334 21.0723 28.8521V18.8748L8.05664 17.6807C8.06745 20.886 8.07825 24.0913 8.08906 27.2967Z" fill="#FFD500"/>
<path d="M8.0742 22.8677C12.4071 23.3105 16.7401 23.7532 21.0723 24.196V18.8344C16.734 18.4334 12.395 18.0324 8.05664 17.6313C8.06272 19.377 8.06812 21.1227 8.0742 22.8684V22.8677Z" fill="#005BBB"/>
<path d="M28.9441 5.41309H34.1212V6.23495H32.1499H32.0378V5.56911H30.6521V6.13709V6.23495H28.832V5.41309H28.9441Z" fill="#3A493B"/>
<path d="M12.2285 4.72461V5.41303H14.1458V4.88679H15.2067V5.41303H17.4495V4.72461H12.2285Z" fill="#3A493B"/>
<path d="M32.359 5.65655C32.359 5.65655 32.3184 5.57238 32.3178 5.57101C32.3178 5.57032 32.2894 5.51284 32.2894 5.51216C32.2691 5.47041 32.2489 5.42799 32.2286 5.38624C32.228 5.38487 32.2063 5.33971 32.2057 5.33902C32.2057 5.33902 32.1915 5.3096 32.1908 5.30891C32.1895 5.30549 30.0527 0.882766 29.8683 0.501603L16.078 0C15.8349 0.583036 14.1054 4.73067 14.1 4.7423C14.0986 4.74572 14.0723 4.80868 14.0703 4.81347C14.0662 4.82373 14.0243 4.92296 14.0203 4.93323C13.9771 5.06667 13.9338 5.20011 13.8906 5.33423H17.2065C17.8109 3.83148 18.4147 2.32941 19.0191 0.826652L26.8537 1.10243L29.2673 6.03566C30.36 6.03839 31.4533 6.04113 32.546 6.04387C32.5454 6.04182 32.359 5.65723 32.359 5.65655ZM16.906 4.98386H14.5828L16.2631 0.663785L18.5491 0.776697L16.9053 4.98386H16.906ZM29.4814 5.60864C28.7675 4.14558 28.0537 2.68251 27.3399 1.21945C28.1503 1.21397 28.96 1.2085 29.7704 1.20303C30.5491 2.65993 31.3277 4.11615 32.1057 5.57306C31.2312 5.58538 30.3559 5.59701 29.4814 5.60933V5.60864Z" fill="#242D24"/>
<path d="M34.1212 5.41309V6.23495H32.0176V5.41309H34.1212Z" fill="#3A493B"/>
<path d="M17.4498 4.72461V5.41303H15.207V4.88679V4.72461H17.4498Z" fill="#3A493B"/>
</g>
<defs>
<clipPath id="clip0_1959_86">
<rect width="48" height="38" fill="white"/>
</clipPath>
</defs>
</svg>
