<svg width="23" height="38" viewBox="0 0 23 38" fill="none" xmlns="http://www.w3.org/2000/svg">
<g clip-path="url(#clip0_366_1418)">
<path d="M11.4697 0C5.16656 0 0.0386963 5.01411 0.0386963 11.1775V26.8225C0.0386963 32.9859 5.16656 38 11.4697 38C17.7729 38 22.9008 32.9859 22.9008 26.8225V11.1775C22.9008 5.01411 17.7729 0 11.4697 0ZM20.5691 26.8225C20.5691 31.7285 16.487 35.7201 11.4697 35.7201C6.45246 35.7201 2.37033 31.7285 2.37033 26.8225V11.1775C2.37033 6.27148 6.45246 2.27991 11.4697 2.27991C16.487 2.27991 20.5691 6.27148 20.5691 11.1775V26.8225Z" fill="#4982C6"/>
</g>
<defs>
<clipPath id="clip0_366_1418">
<rect width="23" height="38" fill="white"/>
</clipPath>
</defs>
</svg>
