<svg width="20" height="20" viewBox="0 0 20 20" fill="none" xmlns="http://www.w3.org/2000/svg">
<path d="M17.6 19L11.3 13.05C10.8 13.4278 10.225 13.7269 9.575 13.9472C8.925 14.1676 8.23333 14.2778 7.5 14.2778C5.68333 14.2778 4.146 13.6834 2.888 12.4947C1.63 11.3059 1.00067 9.854 1 8.13889C1 6.42315 1.62933 4.97122 2.888 3.78311C4.14667 2.595 5.684 2.00063 7.5 2C9.31667 2 10.854 2.59437 12.112 3.78311C13.37 4.97185 13.9993 6.42378 14 8.13889C14 8.83148 13.8833 9.48472 13.65 10.0986C13.4167 10.7125 13.1 11.2556 12.7 11.7278L19 17.6778L17.6 19ZM7.5 12.3889C8.75 12.3889 9.81267 11.9755 10.688 11.1488C11.5633 10.3221 12.0007 9.31881 12 8.13889C12 6.95833 11.5623 5.9547 10.687 5.128C9.81167 4.3013 8.74933 3.88826 7.5 3.88889C6.25 3.88889 5.18733 4.30224 4.312 5.12894C3.43667 5.95565 2.99933 6.95896 3 8.13889C3 9.31944 3.43767 10.3231 4.313 11.1498C5.18833 11.9765 6.25067 12.3895 7.5 12.3889Z" fill="#566B56"/>
</svg>
