<svg width="30" height="30" viewBox="0 0 30 30" fill="none" xmlns="http://www.w3.org/2000/svg">
<path d="M26.4 28.5L16.95 19.575C16.2 20.1417 15.3375 20.5903 14.3625 20.9208C13.3875 21.2514 12.35 21.4167 11.25 21.4167C8.525 21.4167 6.219 20.5251 4.332 18.742C2.445 16.9589 1.501 14.781 1.5 12.2083C1.5 9.63472 2.444 7.45683 4.332 5.67467C6.22 3.8925 8.526 3.00094 11.25 3C13.975 3 16.281 3.89156 18.168 5.67467C20.055 7.45778 20.999 9.63567 21 12.2083C21 13.2472 20.825 14.2271 20.475 15.1479C20.125 16.0687 19.65 16.8833 19.05 17.5917L28.5 26.5167L26.4 28.5ZM11.25 18.5833C13.125 18.5833 14.719 17.9633 16.032 16.7233C17.345 15.4832 18.001 13.9782 18 12.2083C18 10.4375 17.3435 8.93205 16.0305 7.692C14.7175 6.45194 13.124 5.83239 11.25 5.83333C9.375 5.83333 7.781 6.45336 6.468 7.69342C5.155 8.93347 4.499 10.4384 4.5 12.2083C4.5 13.9792 5.1565 15.4846 6.4695 16.7247C7.7825 17.9647 9.376 18.5843 11.25 18.5833Z" fill="black"/>
</svg>
