<svg width="20" height="20" viewBox="0 0 20 20" fill="none" xmlns="http://www.w3.org/2000/svg">
<g clip-path="url(#clip0_211_759)">
<path d="M19.2 4.47712L10.7385 0.17689C10.5124 0.0608616 10.2583 0 10 0C9.7417 0 9.48762 0.0608616 9.26154 0.17689L0.8 4.47891C0.558354 4.60171 0.356638 4.78253 0.215915 5.00246C0.0751925 5.2224 0.000625248 5.47339 0 5.72924V14.2708C0.000625248 14.5266 0.0751925 14.7776 0.215915 14.9975C0.356638 15.2175 0.558354 15.3983 0.8 15.5211L9.26154 19.8231C9.48762 19.9391 9.7417 20 10 20C10.2583 20 10.5124 19.9391 10.7385 19.8231L19.2 15.5211C19.4416 15.3983 19.6434 15.2175 19.7841 14.9975C19.9248 14.7776 19.9994 14.5266 20 14.2708V5.73013C19.9999 5.47383 19.9256 5.22228 19.7848 5.00183C19.6441 4.78138 19.4421 4.60015 19.2 4.47712ZM10 1.42722L17.725 5.35682L14.8625 6.81256L7.13654 2.88296L10 1.42722ZM10 9.28642L2.275 5.35682L5.53462 3.69924L13.2596 7.62884L10 9.28642ZM1.53846 6.60715L9.23077 10.5171V18.1789L1.53846 14.2717V6.60715ZM18.4615 14.2681L10.7692 18.1789V10.5207L13.8462 8.95687V12.1443C13.8462 12.3338 13.9272 12.5155 14.0715 12.6495C14.2157 12.7835 14.4114 12.8588 14.6154 12.8588C14.8194 12.8588 15.0151 12.7835 15.1593 12.6495C15.3036 12.5155 15.3846 12.3338 15.3846 12.1443V8.17452L18.4615 6.60715V14.2672V14.2681Z" fill="white"/>
</g>
<defs>
<clipPath id="clip0_211_759">
<rect width="20" height="20" fill="white"/>
</clipPath>
</defs>
</svg>
