<svg width="20" height="20" viewBox="0 0 20 20" fill="none" xmlns="http://www.w3.org/2000/svg">
<g clip-path="url(#clip0_37_126)">
<path d="M16.5333 0.666748C17.2475 0.666708 17.9347 0.939585 18.4543 1.42955C18.974 1.91951 19.2867 2.58951 19.3286 3.30248L19.3333 3.46675V16.5334C19.3333 17.2476 19.0605 17.9348 18.5705 18.4545C18.0805 18.9741 17.4105 19.2868 16.6976 19.3287L16.5333 19.3334H3.46663C2.75243 19.3335 2.06521 19.0606 1.54558 18.5706C1.02595 18.0807 0.713192 17.4106 0.671293 16.6977L0.666626 16.5334V3.46675C0.666586 2.75255 0.939463 2.06533 1.42942 1.5457C1.91939 1.02607 2.58939 0.713314 3.30236 0.671415L3.46663 0.666748H16.5333ZM9.99996 9.06675H9.06663L8.95743 9.07328C8.73058 9.10026 8.52151 9.20951 8.36981 9.38031C8.21812 9.55112 8.13433 9.77164 8.13433 10.0001C8.13433 10.2285 8.21812 10.449 8.36981 10.6198C8.52151 10.7907 8.73058 10.8999 8.95743 10.9269L9.06663 10.9334V13.7334L9.07316 13.8426C9.09773 14.051 9.19177 14.2449 9.3401 14.3933C9.48844 14.5416 9.68242 14.6356 9.89076 14.6602L9.99996 14.6667H10.9333L11.0425 14.6602C11.2508 14.6356 11.4448 14.5416 11.5931 14.3933C11.7415 14.2449 11.8355 14.051 11.8601 13.8426L11.8666 13.7334L11.8601 13.6242C11.8378 13.4338 11.7574 13.2549 11.6298 13.1118C11.5022 12.9686 11.3336 12.8683 11.147 12.8243L11.0425 12.8057L10.9333 12.8001V10.0001L10.9268 9.89088C10.9022 9.68255 10.8082 9.48856 10.6598 9.34023C10.5115 9.19189 10.3175 9.09785 10.1092 9.07328L9.99996 9.06675ZM10.0093 6.26675L9.89076 6.27328C9.66391 6.30026 9.45484 6.40951 9.30314 6.58032C9.15145 6.75112 9.06767 6.97164 9.06767 7.20008C9.06767 7.42853 9.15145 7.64904 9.30314 7.81985C9.45484 7.99066 9.66391 8.0999 9.89076 8.12688L9.99996 8.13341L10.1185 8.12688C10.3453 8.0999 10.5544 7.99066 10.7061 7.81985C10.8578 7.64904 10.9416 7.42853 10.9416 7.20008C10.9416 6.97164 10.8578 6.75112 10.7061 6.58032C10.5544 6.40951 10.3453 6.30026 10.1185 6.27328L10.0093 6.26675Z" fill="white"/>
</g>
<defs>
<clipPath id="clip0_37_126">
<rect width="20" height="20" fill="white"/>
</clipPath>
</defs>
</svg>
