<svg width="26" height="26" viewBox="0 0 26 26" fill="none" xmlns="http://www.w3.org/2000/svg">
<path d="M13 22.6C15.5461 22.6 17.9879 21.5886 19.7882 19.7882C21.5886 17.9879 22.6 15.5461 22.6 13C22.6 10.4539 21.5886 8.01212 19.7882 6.21178C17.9879 4.41143 15.5461 3.4 13 3.4C10.4539 3.4 8.01212 4.41143 6.21178 6.21178C4.41143 8.01212 3.4 10.4539 3.4 13C3.4 15.5461 4.41143 17.9879 6.21178 19.7882C8.01212 21.5886 10.4539 22.6 13 22.6ZM13 1C14.5759 1 16.1363 1.31039 17.5922 1.91345C19.0481 2.5165 20.371 3.40042 21.4853 4.51472C22.5996 5.62902 23.4835 6.95189 24.0866 8.4078C24.6896 9.86371 25 11.4241 25 13C25 16.1826 23.7357 19.2348 21.4853 21.4853C19.2348 23.7357 16.1826 25 13 25C6.364 25 1 19.6 1 13C1 9.8174 2.26428 6.76516 4.51472 4.51472C6.76516 2.26428 9.8174 1 13 1ZM13.6 7V13.3L19 16.504L18.1 17.98L11.8 14.2V7H13.6Z" fill="white"/>
</svg>
