<svg width="20" height="20" viewBox="0 0 20 20" fill="none" xmlns="http://www.w3.org/2000/svg">
<path d="M15.4545 15.6875C16.2091 15.6875 16.8182 15.1012 16.8182 14.375C16.8182 13.6488 16.2091 13.0625 15.4545 13.0625C14.7 13.0625 14.0909 13.6488 14.0909 14.375C14.0909 15.1012 14.7 15.6875 15.4545 15.6875ZM16.8182 7.8125H14.5455V10H18.6L16.8182 7.8125ZM4.54545 15.6875C5.3 15.6875 5.90909 15.1012 5.90909 14.375C5.90909 13.6488 5.3 13.0625 4.54545 13.0625C3.79091 13.0625 3.18182 13.6488 3.18182 14.375C3.18182 15.1012 3.79091 15.6875 4.54545 15.6875ZM17.2727 6.5L20 10V14.375H18.1818C18.1818 15.8275 16.9636 17 15.4545 17C13.9455 17 12.7273 15.8275 12.7273 14.375H7.27273C7.27273 15.8275 6.05455 17 4.54545 17C3.03636 17 1.81818 15.8275 1.81818 14.375H0V4.75C0 3.77875 0.809091 3 1.81818 3H14.5455V6.5H17.2727ZM1.81818 4.75V12.625H2.50909C3.00909 12.0913 3.73636 11.75 4.54545 11.75C5.35455 11.75 6.08182 12.0913 6.58182 12.625H12.7273V4.75H1.81818Z" fill="#566B56"/>
</svg>
