<svg width="20" height="20" viewBox="0 0 20 20" fill="none" xmlns="http://www.w3.org/2000/svg">
<g clip-path="url(#clip0_37_117)">
<path d="M18.83 9.13271C19.0393 8.96934 19.1945 8.74143 19.274 8.48093C19.3534 8.22044 19.3531 7.94042 19.2729 7.68015C19.1928 7.41988 19.037 7.19241 18.8273 7.02962C18.6176 6.86684 18.3645 6.77691 18.1035 6.77244L13.0353 6.57182C13.0104 6.57002 12.9865 6.5607 12.9665 6.545C12.9465 6.52929 12.9313 6.50787 12.9227 6.48331L11.1713 1.52674C11.0833 1.27457 10.9235 1.05682 10.7135 0.902976C10.5034 0.749133 10.2534 0.666626 9.99714 0.666626C9.7409 0.666626 9.49084 0.749133 9.28083 0.902976C9.07081 1.05682 8.91099 1.27457 8.823 1.52674L7.07726 6.50101C7.06864 6.52557 7.05341 6.547 7.03343 6.5627C7.01345 6.5784 6.98956 6.58772 6.96464 6.58952L1.89638 6.79014C1.63542 6.79461 1.38235 6.88454 1.17263 7.04732C0.962914 7.21011 0.807077 7.43758 0.72697 7.69785C0.646864 7.95812 0.646504 8.23814 0.725943 8.49863C0.805381 8.75913 0.960633 8.98704 1.16993 9.15042L5.1457 12.4253C5.16559 12.4417 5.18047 12.4639 5.18847 12.489C5.19648 12.5142 5.19727 12.5413 5.19075 12.5669L3.82232 17.6474C3.75141 17.9061 3.75828 18.1814 3.84199 18.4359C3.92571 18.6904 4.08221 18.9116 4.2902 19.0696C4.49819 19.2276 4.74758 19.3146 5.00443 19.3188C5.26129 19.323 5.51314 19.2442 5.72573 19.0931L9.92675 16.1427C9.94744 16.1277 9.972 16.1197 9.99714 16.1197C10.0223 16.1197 10.0468 16.1277 10.0675 16.1427L14.2686 19.0931C14.4783 19.2493 14.7292 19.3333 14.9866 19.3333C15.2439 19.3333 15.4948 19.2493 15.7046 19.0931C15.9126 18.9366 16.0693 18.7164 16.153 18.4628C16.2367 18.2092 16.2433 17.9346 16.172 17.6769L14.7923 12.5787C14.785 12.5531 14.7854 12.5258 14.7934 12.5004C14.8015 12.4751 14.8168 12.453 14.8373 12.4371L18.83 9.13271Z" fill="white"/>
</g>
<defs>
<clipPath id="clip0_37_117">
<rect width="20" height="20" fill="white"/>
</clipPath>
</defs>
</svg>
