<svg width="20" height="20" viewBox="0 0 20 20" fill="none" xmlns="http://www.w3.org/2000/svg">
<path d="M9.99996 18.6666L8.64663 17.4387C7.07551 16.006 5.77663 14.7702 4.74996 13.7311C3.72329 12.6921 2.90663 11.7591 2.29996 10.9323C1.69329 10.1061 1.26956 9.34663 1.02876 8.65393C0.787959 7.96123 0.667248 7.25278 0.666626 6.52859C0.666626 5.04872 1.15663 3.81288 2.13663 2.82105C3.11663 1.82923 4.33774 1.33331 5.79996 1.33331C6.60885 1.33331 7.37885 1.50649 8.10996 1.85284C8.84107 2.19919 9.47107 2.68723 9.99996 3.31696C10.5288 2.68723 11.1588 2.19919 11.89 1.85284C12.6211 1.50649 13.3911 1.33331 14.2 1.33331C15.6622 1.33331 16.8833 1.82923 17.8633 2.82105C18.8433 3.81288 19.3333 5.04872 19.3333 6.52859C19.3333 7.25278 19.2126 7.96123 18.9712 8.65393C18.7297 9.34663 18.306 10.1061 17.7 10.9323C17.0933 11.7591 16.2766 12.6921 15.25 13.7311C14.2233 14.7702 12.9244 16.006 11.3533 17.4387L9.99996 18.6666Z" fill="white"/>
</svg>
