<svg width="20" height="20" viewBox="0 0 20 20" fill="none" xmlns="http://www.w3.org/2000/svg">
<g clip-path="url(#clip0_214_1536)">
<path d="M5.23736e-07 10.0074C-0.000489032 8.49398 0.342233 7.00022 1.00236 5.63855C1.66249 4.27687 2.62282 3.08277 3.81104 2.14615C4.99926 1.20953 6.38441 0.554812 7.86218 0.231281C9.33996 -0.09225 10.8718 -0.0761562 12.3425 0.278351C12.4516 0.304261 12.5517 0.35906 12.6324 0.437001C12.713 0.514942 12.7712 0.613154 12.8009 0.721341C12.8306 0.829528 12.8306 0.943705 12.8009 1.0519C12.7713 1.16009 12.7131 1.25832 12.6325 1.33629C12.3097 1.65053 12.0777 2.04614 11.961 2.48135C11.8443 2.91655 11.8473 3.37521 11.9695 3.80888C12.0918 4.24256 12.3289 4.63516 12.6557 4.94523C12.9825 5.2553 13.3869 5.47134 13.8263 5.57053C13.9819 5.60545 14.121 5.69234 14.2208 5.81688C14.3205 5.94143 14.3749 6.09623 14.375 6.25581C14.3749 6.76436 14.5297 7.26087 14.8189 7.67914C15.108 8.0974 15.5178 8.41753 15.9935 8.59686C16.4692 8.77618 16.9882 8.80617 17.4814 8.68283C17.9745 8.55948 18.4184 8.28866 18.7538 7.90649C18.8312 7.81804 18.932 7.75323 19.0447 7.71952C19.1573 7.6858 19.2771 7.68454 19.3904 7.71588C19.5037 7.74722 19.6059 7.80989 19.6852 7.89669C19.7645 7.98349 19.8177 8.09091 19.8388 8.20661C20.0871 9.57322 20.0482 10.9766 19.7246 12.3273C19.4011 13.6781 18.7999 14.9466 17.9593 16.0522C17.1188 17.1578 16.0574 18.0761 14.8426 18.7487C13.6278 19.4214 12.2864 19.8336 10.9036 19.9591C9.52085 20.0846 8.12712 19.9207 6.81118 19.4777C5.49523 19.0348 4.2859 18.3226 3.26019 17.3864C2.23449 16.4503 1.41489 15.3107 0.853594 14.0402C0.292293 12.7698 0.0015919 11.3964 5.23736e-07 10.0074ZM6.25 7.50632C6.25 7.17467 6.11831 6.85659 5.88389 6.62208C5.64947 6.38756 5.33152 6.25581 5 6.25581C4.66848 6.25581 4.35054 6.38756 4.11612 6.62208C3.8817 6.85659 3.75 7.17467 3.75 7.50632C3.75 7.83798 3.8817 8.15605 4.11612 8.39057C4.35054 8.62509 4.66848 8.75684 5 8.75684C5.33152 8.75684 5.64947 8.62509 5.88389 8.39057C6.11831 8.15605 6.25 7.83798 6.25 7.50632ZM10 11.2579C10.3315 11.2579 10.6495 11.1261 10.8839 10.8916C11.1183 10.6571 11.25 10.339 11.25 10.0074C11.25 9.6757 11.1183 9.35762 10.8839 9.1231C10.6495 8.88859 10.3315 8.75684 10 8.75684C9.66848 8.75684 9.35054 8.88859 9.11612 9.1231C8.8817 9.35762 8.75 9.6757 8.75 10.0074C8.75 10.339 8.8817 10.6571 9.11612 10.8916C9.35054 11.1261 9.66848 11.2579 10 11.2579ZM13.75 15.0094C13.75 14.6778 13.6183 14.3597 13.3839 14.1252C13.1495 13.8906 12.8315 13.7589 12.5 13.7589C12.1685 13.7589 11.8505 13.8906 11.6161 14.1252C11.3817 14.3597 11.25 14.6778 11.25 15.0094C11.25 15.3411 11.3817 15.6591 11.6161 15.8937C11.8505 16.1282 12.1685 16.2599 12.5 16.2599C12.8315 16.2599 13.1495 16.1282 13.3839 15.8937C13.6183 15.6591 13.75 15.3411 13.75 15.0094ZM6.25 15.0094C6.58152 15.0094 6.89947 14.8777 7.13389 14.6431C7.36831 14.4086 7.5 14.0906 7.5 13.7589C7.5 13.4272 7.36831 13.1092 7.13389 12.8746C6.89947 12.6401 6.58152 12.5084 6.25 12.5084C5.91848 12.5084 5.60054 12.6401 5.36612 12.8746C5.1317 13.1092 5 13.4272 5 13.7589C5 14.0906 5.1317 14.4086 5.36612 14.6431C5.60054 14.8777 5.91848 15.0094 6.25 15.0094Z" fill="white"/>
</g>
<defs>
<clipPath id="clip0_214_1536">
<rect width="20" height="20" fill="white"/>
</clipPath>
</defs>
</svg>
