<svg width="20" height="20" viewBox="0 0 20 20" fill="none" xmlns="http://www.w3.org/2000/svg">
<path d="M9.5 15.038C9.80104 15.038 10.0536 14.9408 10.2576 14.7463C10.4616 14.5519 10.5632 14.3116 10.5625 14.0253V9.97468C10.5625 9.68776 10.4605 9.44709 10.2565 9.25266C10.0525 9.05823 9.80033 8.96135 9.5 8.96203C9.19896 8.96203 8.94644 9.05924 8.74244 9.25367C8.53844 9.4481 8.43679 9.68844 8.4375 9.97468V14.0253C8.4375 14.3122 8.5395 14.5529 8.7435 14.7473C8.9475 14.9418 9.19967 15.0387 9.5 15.038ZM9.5 6.93671C9.80104 6.93671 10.0536 6.83949 10.2576 6.64506C10.4616 6.45063 10.5632 6.2103 10.5625 5.92405C10.5625 5.63713 10.4605 5.39646 10.2565 5.20203C10.0525 5.0076 9.80033 4.91072 9.5 4.91139C9.19896 4.91139 8.94644 5.00861 8.74244 5.20304C8.53844 5.39747 8.43679 5.63781 8.4375 5.92405C8.4375 6.21097 8.5395 6.45165 8.7435 6.64608C8.9475 6.84051 9.19967 6.93738 9.5 6.93671ZM9.5 20C9.37604 20 9.26094 19.9916 9.15469 19.9747C9.04844 19.9578 8.94219 19.9325 8.83594 19.8987C6.44531 19.1392 4.54167 17.734 3.125 15.683C1.70833 13.6321 1 11.4255 1 9.06329V4.27848C1 3.85654 1.12856 3.47679 1.38569 3.13924C1.64281 2.80169 1.97467 2.55696 2.38125 2.40506L8.75625 0.126582C9.00417 0.0421941 9.25208 0 9.5 0C9.74792 0 9.99583 0.0421941 10.2437 0.126582L16.6187 2.40506C17.026 2.55696 17.3582 2.80169 17.6154 3.13924C17.8725 3.47679 18.0007 3.85654 18 4.27848V9.06329C18 11.4262 17.2917 13.6331 15.875 15.6841C14.4583 17.735 12.5547 19.1399 10.1641 19.8987C10.0578 19.9325 9.95156 19.9578 9.84531 19.9747C9.73906 19.9916 9.62396 20 9.5 20Z" fill="white"/>
</svg>
