<svg width="20" height="20" viewBox="0 0 20 20" fill="none" xmlns="http://www.w3.org/2000/svg">
<g clip-path="url(#clip0_37_124)">
<path d="M17.7777 0.666626H2.22218C1.80962 0.666626 1.41396 0.830514 1.12224 1.12224C0.830514 1.41396 0.666626 1.80962 0.666626 2.22218V17.7777C0.666626 18.1903 0.830514 18.586 1.12224 18.8777C1.41396 19.1694 1.80962 19.3333 2.22218 19.3333H17.7777C18.1903 19.3333 18.586 19.1694 18.8777 18.8777C19.1694 18.586 19.3333 18.1903 19.3333 17.7777V2.22218C19.3333 1.80962 19.1694 1.41396 18.8777 1.12224C18.586 0.830514 18.1903 0.666626 17.7777 0.666626ZM15.4444 10.7777H10.7777V15.4444C10.7777 15.6507 10.6958 15.8485 10.5499 15.9944C10.4041 16.1402 10.2062 16.2222 9.99996 16.2222C9.79368 16.2222 9.59585 16.1402 9.44999 15.9944C9.30413 15.8485 9.22218 15.6507 9.22218 15.4444V10.7777H4.55551C4.34924 10.7777 4.1514 10.6958 4.00554 10.5499C3.85968 10.4041 3.77774 10.2062 3.77774 9.99996C3.77774 9.79368 3.85968 9.59585 4.00554 9.44999C4.1514 9.30413 4.34924 9.22218 4.55551 9.22218H9.22218V4.55551C9.22218 4.34924 9.30413 4.1514 9.44999 4.00554C9.59585 3.85968 9.79368 3.77774 9.99996 3.77774C10.2062 3.77774 10.4041 3.85968 10.5499 4.00554C10.6958 4.1514 10.7777 4.34924 10.7777 4.55551V9.22218H15.4444C15.6507 9.22218 15.8485 9.30413 15.9944 9.44999C16.1402 9.59585 16.2222 9.79368 16.2222 9.99996C16.2222 10.2062 16.1402 10.4041 15.9944 10.5499C15.8485 10.6958 15.6507 10.7777 15.4444 10.7777Z" fill="white"/>
</g>
<defs>
<clipPath id="clip0_37_124">
<rect width="20" height="20" fill="white"/>
</clipPath>
</defs>
</svg>
