<svg width="20" height="20" viewBox="0 0 20 20" fill="none" xmlns="http://www.w3.org/2000/svg">
<path d="M15.4545 15.6875C15.0929 15.6875 14.746 15.5492 14.4903 15.3031C14.2346 15.0569 14.0909 14.7231 14.0909 14.375C14.0909 14.0269 14.2346 13.6931 14.4903 13.4469C14.746 13.2008 15.0929 13.0625 15.4545 13.0625C15.8162 13.0625 16.163 13.2008 16.4188 13.4469C16.6745 13.6931 16.8182 14.0269 16.8182 14.375C16.8182 14.7231 16.6745 15.0569 16.4188 15.3031C16.163 15.5492 15.8162 15.6875 15.4545 15.6875ZM16.8182 7.8125L18.6 10H14.5455V7.8125M4.54545 15.6875C4.1838 15.6875 3.83695 15.5492 3.58122 15.3031C3.32549 15.0569 3.18182 14.7231 3.18182 14.375C3.18182 14.0269 3.32549 13.6931 3.58122 13.4469C3.83695 13.2008 4.1838 13.0625 4.54545 13.0625C4.90711 13.0625 5.25396 13.2008 5.50969 13.4469C5.76542 13.6931 5.90909 14.0269 5.90909 14.375C5.90909 14.7231 5.76542 15.0569 5.50969 15.3031C5.25396 15.5492 4.90711 15.6875 4.54545 15.6875ZM17.2727 6.5H14.5455V3H1.81818C0.809091 3 0 3.77875 0 4.75V14.375H1.81818C1.81818 15.0712 2.10552 15.7389 2.61698 16.2312C3.12844 16.7234 3.82214 17 4.54545 17C5.26877 17 5.96247 16.7234 6.47393 16.2312C6.98539 15.7389 7.27273 15.0712 7.27273 14.375H12.7273C12.7273 15.0712 13.0146 15.7389 13.5261 16.2312C14.0375 16.7234 14.7312 17 15.4545 17C16.1779 17 16.8716 16.7234 17.383 16.2312C17.8945 15.7389 18.1818 15.0712 18.1818 14.375H20V10L17.2727 6.5Z" fill="white"/>
</svg>
